Coordinates
version=1
nRows=49
nColumns=12
inDegrees=yes

Units are S.I. units (second, meters, Newtons, ...)
Angles are in degrees

endheader
time	SC_y	SC_z	SC_x	AC_y	AC_z	AC_x	GH_y	GH_z	GH_yy	EL_x	PS_y
       0.0              -52.69           39.5          15.64           33.5         -4.362         -19.19         -135.9          53.83          2.301          62.79          27.45
  0.001225              -52.69           39.5          15.65           33.5         -4.362         -19.19         -135.9          53.83          2.306          62.79          27.45
   0.00245              -52.69          39.49          15.65           33.5         -4.363         -19.19         -135.9          53.84          2.313          62.78          27.45
  0.003675              -52.69          39.48          15.65           33.5         -4.363         -19.19         -135.9          53.84          2.319          62.78          27.45
    0.0049              -52.69          39.48          15.66           33.5         -4.364         -19.18         -135.9          53.85          2.326          62.77          27.45
  0.006125              -52.69          39.47          15.66          33.51         -4.364         -19.18         -135.9          53.85          2.334          62.77          27.45
   0.00735              -52.69          39.46          15.67          33.51         -4.365         -19.18         -135.8          53.86          2.342          62.76          27.45
  0.008575              -52.69          39.46          15.68          33.51         -4.365         -19.18         -135.8          53.86           2.35          62.75          27.45
    0.0098              -52.69          39.45          15.68          33.51         -4.366         -19.17         -135.8          53.87           2.36          62.75          27.44
   0.01103              -52.69          39.44          15.69          33.52         -4.367         -19.17         -135.8          53.87          2.369          62.74          27.44
   0.01225              -52.69          39.43           15.7          33.52         -4.368         -19.17         -135.8          53.88           2.38          62.73          27.44
   0.01348              -52.69          39.42           15.7          33.52         -4.368         -19.16         -135.8          53.89          2.391          62.72          27.44
    0.0147              -52.69          39.41          15.71          33.53         -4.369         -19.16         -135.7          53.89          2.404          62.71          27.44
   0.01593              -52.69          39.39          15.72          33.53          -4.37         -19.15         -135.7           53.9          2.417           62.7          27.44
   0.01715              -52.69          39.38          15.73          33.53         -4.371         -19.15         -135.7          53.91          2.431          62.69          27.44
   0.01838               -52.7          39.37          15.74          33.54         -4.372         -19.14         -135.7          53.92          2.447          62.67          27.44
    0.0196               -52.7          39.35          15.76          33.54         -4.374         -19.14         -135.6          53.93          2.464          62.66          27.44
   0.02083               -52.7          39.33          15.77          33.55         -4.375         -19.13         -135.6          53.94          2.482          62.64          27.44
   0.02205               -52.7          39.31          15.78          33.55         -4.376         -19.13         -135.6          53.95          2.502          62.63          27.43
   0.02328               -52.7          39.29           15.8          33.56         -4.378         -19.12         -135.5          53.97          2.524          62.61          27.43
    0.0245               -52.7          39.27          15.82          33.56          -4.38         -19.11         -135.5          53.98          2.548          62.59          27.43
   0.02573               -52.7          39.25          15.83          33.57         -4.382          -19.1         -135.5           54.0          2.575          62.57          27.43
   0.02695               -52.7          39.22          15.85          33.58         -4.384         -19.09         -135.4          54.02          2.604          62.54          27.43
   0.02818              -52.71          39.19          15.88          33.59         -4.386         -19.08         -135.4          54.04          2.637          62.52          27.42
    0.0294              -52.71          39.15           15.9           33.6         -4.389         -19.07         -135.3          54.06          2.673          62.49          27.42
   0.03063              -52.71          39.12          15.93          33.61         -4.392         -19.06         -135.2          54.08          2.713          62.45          27.42
   0.03185              -52.71          39.07          15.96          33.62         -4.395         -19.04         -135.1          54.11          2.759          62.42          27.42
   0.03308              -52.72          39.03           16.0          33.63         -4.399         -19.03         -135.1          54.14           2.81          62.37          27.41
    0.0343              -52.72          38.97          16.04          33.65         -4.403         -19.01         -135.0          54.18          2.867          62.33          27.41
   0.03553              -52.72          38.91          16.08          33.67         -4.407         -18.99         -134.9          54.22          2.932          62.27           27.4
   0.03675              -52.73          38.84          16.14          33.69         -4.413         -18.96         -134.7          54.27          3.007          62.21           27.4
   0.03798              -52.73          38.76           16.2          33.71         -4.419         -18.94         -134.6          54.32          3.092          62.14          27.39
    0.0392              -52.74          38.67          16.27          33.74         -4.426          -18.9         -134.4          54.38          3.191          62.06          27.38
   0.04043              -52.74          38.56          16.35          33.77         -4.434         -18.87         -134.2          54.45          3.306          61.96          27.38
   0.04165              -52.75          38.44          16.44           33.8         -4.444         -18.82         -134.0          54.53           3.44          61.85          27.37
   0.04288              -52.76          38.29          16.55          33.85         -4.456         -18.77         -133.7          54.63          3.598          61.72          27.35
    0.0441              -52.77          38.12          16.68           33.9         -4.469         -18.71         -133.4          54.75          3.786          61.57          27.34
   0.04533              -52.78          37.91          16.84          33.96         -4.485         -18.64         -133.0          54.89          4.012          61.38          27.32
   0.04655               -52.8          37.65          17.03          34.03         -4.505         -18.55         -132.6          55.05          4.284          61.16           27.3
   0.04778              -52.81          37.34          17.27          34.12         -4.529         -18.44         -132.0          55.26          4.618          60.88          27.28
     0.049              -52.84          36.96          17.56          34.23         -4.559         -18.31         -131.3          55.51          5.029          60.54          27.25
   0.05023              -52.87          36.48          17.92          34.37         -4.596         -18.15         -130.5          55.83          5.541          60.12          27.21
   0.05145               -52.9          35.88          18.37          34.55         -4.643         -17.94         -129.4          56.23          6.187          59.58          27.16
   0.05268              -52.95          35.11          18.95          34.77         -4.702         -17.67         -128.0          56.73          7.008          58.91           27.1
    0.0539               -53.0          34.13          19.69          35.05         -4.778         -17.33         -126.3          57.38          8.059          58.04          27.03
   0.05513              -53.08          32.87          20.63          35.41         -4.875          -16.9         -124.0          58.21          9.408          56.92          26.93
   0.05635              -53.17          31.27          21.84          35.88           -5.0         -16.34         -121.1          59.27          11.13           55.5           26.8
   0.05758              -53.29          29.24          23.37          36.46         -5.156         -15.65         -117.5          60.61           13.3          53.71          26.64
    0.0588              -53.44          26.78          25.22          37.18         -5.347          -14.8         -113.1          62.24          15.94          51.53          26.45
